<svg xmlns="http://www.w3.org/2000/svg" viewBox="0 0 96 96" role="img" aria-label="Chicken Jockey ikon">
  <defs>
    <linearGradient id="bg" x1="0" y1="0" x2="1" y2="1">
      <stop offset="0" stop-color="#0f1b33"/>
      <stop offset="1" stop-color="#102647"/>
    </linearGradient>
  </defs>
  <rect width="96" height="96" rx="14" fill="url(#bg)"/>

  <rect x="18" y="48" width="38" height="24" fill="#efefef"/>
  <rect x="20" y="50" width="34" height="4" fill="#ffffff"/>
  <rect x="11" y="52" width="10" height="8" fill="#b88b4c"/>
  <rect x="13" y="60" width="6" height="5" fill="#d92f22"/>
  <rect x="28" y="72" width="4" height="12" fill="#d8c86f"/>
  <rect x="42" y="72" width="4" height="12" fill="#d8c86f"/>

  <rect x="27" y="28" width="24" height="16" fill="#69a95f"/>
  <rect x="29" y="30" width="20" height="4" fill="#82bf79"/>
  <rect x="30" y="36" width="4" height="3" fill="#1e1e1e"/>
  <rect x="42" y="36" width="4" height="3" fill="#1e1e1e"/>
  <rect x="30" y="44" width="18" height="6" fill="#4ea6c8"/>
  <rect x="24" y="44" width="6" height="10" fill="#5bad66"/>
  <rect x="48" y="44" width="6" height="10" fill="#5bad66"/>

  <rect x="2" y="2" width="92" height="92" rx="12" fill="none" stroke="rgba(162,206,255,0.45)" stroke-width="2"/>
</svg>
